<svg width="88" height="106" viewBox="0 0 88 106" fill="none" xmlns="http://www.w3.org/2000/svg">
<path d="M16.4545 106H14.1541L8.25922 96.715L2.26849 106H0L7.47643 94.632H9.02604L16.4545 106Z" fill="white"/>
<path d="M17.4973 106V94.632H26.3955C29.0687 94.632 30.4053 95.4501 30.4053 97.0864V98.4751C30.4053 99.8423 29.4788 100.639 27.6256 100.865L30.2935 106H28.025L25.3891 100.93H19.622V106H17.4973ZM19.622 96.3113V99.2502H26.3955C27.6523 99.2502 28.2806 98.9919 28.2806 98.4751V97.0864C28.2806 96.5697 27.6523 96.3113 26.3955 96.3113H19.622Z" fill="white"/>
<path d="M34.0528 100.833V104.321H43.4942V106H31.9281V94.632H43.4942V96.3113H34.0528V99.1533H43.015V100.833H34.0528Z" fill="white"/>
<path d="M60.8234 106H58.523L52.6281 96.715L46.6374 106H44.3689L51.8453 94.632H53.3949L60.8234 106Z" fill="white"/>
<path d="M69.2947 99.1533C70.5514 99.1533 71.1798 98.895 71.1798 98.3782V97.0864C71.1798 96.5697 70.5514 96.3113 69.2947 96.3113H62.2815V94.632H69.2947C71.9679 94.632 73.3045 95.4501 73.3045 97.0864V98.3782C73.3045 100.015 71.9679 100.833 69.2947 100.833H65.7482C64.4914 100.833 63.8631 101.091 63.8631 101.608V104.321H73.3045V106H61.7384V101.608C61.7384 99.9715 63.075 99.1533 65.7482 99.1533H69.2947Z" fill="#FF9233"/>
<path d="M83.9902 99.0403C85.2469 99.0403 85.8753 98.7927 85.8753 98.2975V97.0864C85.8753 96.5697 85.2469 96.3113 83.9902 96.3113H79.1976C77.9409 96.3113 77.3125 96.5697 77.3125 97.0864V98.2652C77.3125 98.7819 77.9409 99.0403 79.1976 99.0403H83.9902ZM83.9902 104.321C85.2469 104.321 85.8753 104.073 85.8753 103.578V101.495C85.8753 100.978 85.2469 100.72 83.9902 100.72H79.1976C77.9409 100.72 77.3125 100.978 77.3125 101.495V103.546C77.3125 104.062 77.9409 104.321 79.1976 104.321H83.9902ZM75.1878 97.0864C75.1878 95.4501 76.5244 94.632 79.1976 94.632H83.9902C86.6634 94.632 88 95.4501 88 97.0864V98.2975C88 98.9972 87.6911 99.5355 87.0734 99.9123C87.6911 100.289 88 100.817 88 101.495V103.578C88 105.193 86.6634 106 83.9902 106H79.1976C76.5244 106 75.1878 105.182 75.1878 103.546V101.495C75.1878 100.795 75.486 100.257 76.0824 99.88C75.486 99.514 75.1878 98.9757 75.1878 98.2652V97.0864Z" fill="#FF9233"/>
<path d="M78.2213 75.4304C78.2213 75.6779 78.1264 75.9976 77.9521 76.1773L68.3563 86.069C68.1998 86.2523 67.9494 86.3708 67.6886 86.3708H54.5274C54.0123 86.3708 53.5948 85.9501 53.5948 85.4311V73.2435C53.5948 72.7246 54.0123 72.3928 54.5274 72.3928H63.376C63.9393 72.3928 64.3983 71.7432 64.3983 71.1612V63.5694C64.3983 62.9442 64.2702 62.2987 63.832 61.8459L59.2934 57.1978C58.9387 56.8313 58.9387 56.2276 59.2934 55.8611L67.3795 47.4977C67.7342 47.1312 68.3184 47.1312 68.6731 47.4977L77.9495 56.9205C78.1103 57.0862 78.1796 57.3094 78.1796 57.5544L78.2213 75.4304Z" fill="#FF9233"/>
<path d="M78.25 25.9676C78.25 26.2436 78.1302 26.4733 77.9632 26.6416C77.8467 26.7589 77.7179 26.9061 77.7179 26.9061L35.7419 69.2236C35.567 69.3999 35.3297 69.499 35.0823 69.499H27.6289C27.1139 69.499 26.6964 69.0783 26.6964 68.5593L26.6964 59.389C26.6964 59.1398 26.7946 58.9008 26.9695 58.7245L43.4287 42.1391C43.7283 41.7947 43.5177 41.3426 43.2288 40.9874L34.9267 32.6297C34.6534 32.3546 34.6532 31.9083 34.9263 31.6329L43.4775 23.011C43.7502 22.7361 44.1922 22.7355 44.4656 23.0097L52.8024 31.3697C53.1665 31.7348 53.7533 31.7362 54.1169 31.3708C56.3899 29.0868 63.7929 21.6458 63.8563 21.5548C66.2552 18.5331 63.3543 14.1968 59.7155 14.1968H44.2488V14.2076L38.3055 14.1983C37.791 14.1975 37.3744 13.777 37.3744 13.2586V0.939717C37.3744 0.420725 37.7919 0 38.307 0L67.4816 0C67.7492 0 67.9679 0.0762103 68.1886 0.290609L77.9366 10.1422C78.1305 10.3376 78.25 10.5746 78.25 10.8783C78.25 10.8783 78.25 22.082 78.25 25.9676Z" fill="#FF9233"/>
<path d="M49.7003 72.397C50.2154 72.397 50.6329 72.8177 50.6329 73.3367V85.4678C50.6329 85.9868 50.2154 86.4076 49.7003 86.4076L20.6319 86.4076C20.2701 86.4076 19.9401 86.2673 19.7166 86.0299L10.048 76.2544C9.88836 76.0817 9.75 75.8227 9.75 75.6069L9.75 57.5204C9.75 57.3154 9.8245 57.1103 9.97351 56.9377L31.8387 34.9076C32.2021 34.5415 32.791 34.5406 33.1555 34.9057L39.365 41.1249C39.6524 41.481 39.6417 41.9343 39.3544 42.2796L24.452 57.2028C23.9412 57.8071 23.7707 58.3541 23.76 59.1202C23.7423 60.0347 23.7515 68.5949 23.7552 71.4645C23.7558 71.9829 24.1731 72.397 24.6876 72.397L49.7003 72.397Z" fill="white"/>
<path d="M34.5365 13.5282C34.5321 13.9142 34.2203 14.2248 33.8371 14.2248H28.5604C24.1173 14.2248 21.7072 19.0953 24.5115 21.9211L28.8079 26.3162C29.1596 26.6828 29.1596 27.276 28.7973 27.6427L20.5993 35.9772C20.2369 36.3547 19.6401 36.3547 19.2671 35.9772L10.0378 26.6378C9.85657 26.4653 9.75 26.228 9.75 25.9692V10.8385C9.75 10.5904 9.84592 10.3532 10.0271 10.1806L19.806 0.295177C19.9904 0.109377 20.1962 0 20.4574 0H33.5967C34.1114 0 34.5288 0.420263 34.5293 0.938957L34.5392 13.2955L34.5365 13.5282Z" fill="white"/>
</svg>
