<svg width="88" height="106" viewBox="0 0 88 106" fill="none" xmlns="http://www.w3.org/2000/svg">
<path d="M16.4546 106H14.1541L8.25924 96.7436L2.2685 106H0L7.47645 94.667H9.02606L16.4546 106Z" fill="#252B42"/>
<path d="M17.4974 106V94.667H26.3956C29.0688 94.667 30.4054 95.4826 30.4054 97.1139V98.4983C30.4054 99.8613 29.4788 100.655 27.6257 100.881L30.2936 106H28.0251L25.3892 100.945H19.6221V106H17.4974ZM19.6221 96.3412V99.2711H26.3956C27.6523 99.2711 28.2807 99.0135 28.2807 98.4983V97.1139C28.2807 96.5988 27.6523 96.3412 26.3956 96.3412H19.6221Z" fill="#252B42"/>
<path d="M34.0529 100.849V104.326H43.4943V106H31.9282V94.667H43.4943V96.3412H34.0529V99.1745H43.0151V100.849H34.0529Z" fill="#252B42"/>
<path d="M60.8236 106H58.5231L52.6282 96.7436L46.6375 106H44.369L51.8454 94.667H53.395L60.8236 106Z" fill="#252B42"/>
<path d="M69.2947 99.174C70.5515 99.174 71.1798 98.9164 71.1798 98.4013V97.1134C71.1798 96.5983 70.5515 96.3407 69.2947 96.3407H62.2816V94.6665H69.2947C71.9679 94.6665 73.3045 95.4821 73.3045 97.1134V98.4013C73.3045 100.033 71.9679 100.848 69.2947 100.848H65.7482C64.4915 100.848 63.8631 101.106 63.8631 101.621V104.325H73.3045V106H61.7384V101.621C61.7384 99.9896 63.075 99.174 65.7482 99.174H69.2947Z" fill="#FF9233"/>
<path d="M83.9903 99.0613C85.247 99.0613 85.8754 98.8145 85.8754 98.3208V97.1134C85.8754 96.5983 85.247 96.3407 83.9903 96.3407H79.1977C77.941 96.3407 77.3126 96.5983 77.3126 97.1134V98.2886C77.3126 98.8037 77.941 99.0613 79.1977 99.0613H83.9903ZM83.9903 104.325C85.247 104.325 85.8754 104.079 85.8754 103.585V101.508C85.8754 100.993 85.247 100.735 83.9903 100.735H79.1977C77.941 100.735 77.3126 100.993 77.3126 101.508V103.553C77.3126 104.068 77.941 104.325 79.1977 104.325H83.9903ZM75.1879 97.1134C75.1879 95.4821 76.5245 94.6665 79.1977 94.6665H83.9903C86.6635 94.6665 88.0001 95.4821 88.0001 97.1134V98.3208C88.0001 99.0184 87.6912 99.555 87.0735 99.9306C87.6912 100.306 88.0001 100.832 88.0001 101.508V103.585C88.0001 105.195 86.6635 106 83.9903 106H79.1977C76.5245 106 75.1879 105.184 75.1879 103.553V101.508C75.1879 100.811 75.4861 100.274 76.0825 99.8984C75.4861 99.5335 75.1879 98.9969 75.1879 98.2886V97.1134Z" fill="#FF9233"/>
<path d="M78.2207 75.4301C78.2207 75.6776 78.1258 75.9973 77.9515 76.177L68.3559 86.0687C68.1994 86.2519 67.949 86.3705 67.6882 86.3705H54.5273C54.0122 86.3705 53.5947 85.9498 53.5947 85.4308V73.2433C53.5947 72.7243 54.0122 72.3925 54.5273 72.3925H63.3756C63.939 72.3925 64.398 71.743 64.398 71.1609V63.5692C64.398 62.944 64.2698 62.2985 63.8317 61.8457L59.2932 57.1976C58.9385 56.8311 58.9385 56.2275 59.2932 55.861L67.3791 47.4975C67.7338 47.131 68.318 47.131 68.6727 47.4975L77.9489 56.9203C78.1097 57.0861 78.179 57.3092 78.179 57.5542L78.2207 75.4301Z" fill="#FF9233"/>
<path d="M78.2492 25.9674C78.2492 26.2434 78.1294 26.4731 77.9624 26.6414C77.8459 26.7588 77.7171 26.9059 77.7171 26.9059L35.7419 69.2232C35.567 69.3995 35.3298 69.4986 35.0824 69.4986H27.6291C27.1141 69.4986 26.6966 69.0778 26.6966 68.5588L26.6966 59.3887C26.6966 59.1394 26.7948 58.9004 26.9697 58.7242L43.4286 42.1388C43.7282 41.7944 43.5176 41.3424 43.2286 40.9872L34.9267 32.6295C34.6534 32.3544 34.6533 31.9081 34.9264 31.6327L43.4774 23.0109C43.75 22.736 44.1921 22.7354 44.4655 23.0095L52.8021 31.3695C53.1662 31.7346 53.7529 31.736 54.1166 31.3706C56.3895 29.0866 63.7924 21.6457 63.8558 21.5546C66.2547 18.5329 63.3538 14.1967 59.7151 14.1967H44.2486V14.2075L38.3055 14.1982C37.7911 14.1974 37.3744 13.7769 37.3744 13.2585V0.939711C37.3744 0.420723 37.7919 0 38.307 0L67.481 0C67.7486 0 67.9672 0.0762098 68.188 0.290607L77.9358 10.1422C78.1297 10.3376 78.2492 10.5745 78.2492 10.8783C78.2492 10.8783 78.2492 22.0819 78.2492 25.9674Z" fill="#FF9233"/>
<path d="M49.7003 72.3966C50.2154 72.3966 50.6329 72.8174 50.6329 73.3364V85.4674C50.6329 85.9864 50.2154 86.4071 49.7003 86.4071L20.6326 86.4071C20.2707 86.4071 19.9408 86.2669 19.7173 86.0295L10.0489 76.254C9.88921 76.0813 9.75085 75.8224 9.75085 75.6065L9.75086 57.5201C9.75086 57.3151 9.82536 57.1101 9.97436 56.9374L31.8391 34.9075C32.2025 34.5414 32.7914 34.5405 33.1559 34.9055L39.3652 41.1248C39.6526 41.4809 39.6419 41.9341 39.3546 42.2794L24.4526 57.2026C23.9417 57.8069 23.7712 58.3538 23.7606 59.1199C23.7429 60.0344 23.7521 68.5946 23.7557 71.4641C23.7564 71.9826 24.1737 72.3967 24.6882 72.3967L49.7003 72.3966Z" fill="#252B42"/>
<path d="M34.5371 13.5281C34.5327 13.9141 34.2208 14.2247 33.8377 14.2247H28.5611C24.1181 14.2247 21.708 19.0952 24.5123 21.921L28.8086 26.316C29.1603 26.6827 29.1603 27.2758 28.798 27.6425L20.6001 35.977C20.2378 36.3545 19.641 36.3545 19.268 35.977L10.0388 26.6377C9.85767 26.4651 9.7511 26.2279 9.7511 25.969V10.8384C9.7511 10.5904 9.84701 10.3531 10.0282 10.1805L19.8069 0.295176C19.9913 0.109376 20.1971 0 20.4582 0H33.5973C34.112 0 34.5294 0.420261 34.5298 0.938952L34.5398 13.2954L34.5371 13.5281Z" fill="#252B42"/>
</svg>
